<svg width="1440" height="900" viewBox="0 0 1440 900" fill="none" xmlns="http://www.w3.org/2000/svg">
<rect width="1440" height="900" fill="#0F172A"/>
<g opacity="0.4" filter="url(#filter0_f_41_11)">
<circle cx="720" cy="450" r="200" fill="#4F46E5"/>
</g>
<g opacity="0.1">
<circle cx="200" cy="200" r="10" fill="white"/>
<circle cx="400" cy="300" r="5" fill="white"/>
<circle cx="600" cy="150" r="7" fill="white"/>
<circle cx="800" cy="250" r="6" fill="white"/>
<circle cx="1000" cy="180" r="8" fill="white"/>
<circle cx="1200" cy="350" r="4" fill="white"/>
<circle cx="150" cy="450" r="6" fill="white"/>
<circle cx="300" cy="550" r="9" fill="white"/>
<circle cx="450" cy="700" r="5" fill="white"/>
<circle cx="650" cy="600" r="7" fill="white"/>
<circle cx="850" cy="750" r="8" fill="white"/>
<circle cx="1050" cy="650" r="4" fill="white"/>
<circle cx="1250" cy="800" r="6" fill="white"/>
<circle cx="1350" cy="150" r="5" fill="white"/>
<circle cx="900" cy="100" r="4" fill="white"/>
<circle cx="1150" cy="500" r="7" fill="white"/>
<circle cx="750" cy="450" r="5" fill="white"/>
<circle cx="550" cy="400" r="3" fill="white"/>
<circle cx="1300" cy="600" r="6" fill="white"/>
</g>
<defs>
<filter id="filter0_f_41_11" x="320" y="50" width="800" height="800" filterUnits="userSpaceOnUse" color-interpolation-filters="sRGB">
<feFlood flood-opacity="0" result="BackgroundImageFix"/>
<feBlend mode="normal" in="SourceGraphic" in2="BackgroundImageFix" result="shape"/>
<feGaussianBlur stdDeviation="100" result="effect1_foregroundBlur_41_11"/>
</filter>
</defs>
</svg>
